<svg width="200" height="200" viewBox="0 0 200 200" fill="none" xmlns="http://www.w3.org/2000/svg">
<circle opacity="0.3" cx="103" cy="82.5" r="75.75" fill="#FDAD98" fill-opacity="0.2"/>
<circle cx="103" cy="82.5" r="82.125" stroke="#FD9074" stroke-width="0.75"/>


<mask id="path-5-inside-1_726_200476" fill="white">
<path d="M102.942 45.4551C105.599 45.4551 108.148 46.5109 110.028 48.3903C111.907 50.2697 112.963 52.8187 112.963 55.4766C112.963 58.1344 111.907 60.6835 110.028 62.5628C108.148 64.4422 105.599 65.4981 102.942 65.4981C100.283 65.4981 97.7335 64.442 95.8537 62.5622C93.9738 60.6824 92.9178 58.1328 92.9178 55.4743C92.9178 52.8159 93.9738 50.2663 95.8537 48.3865C97.7335 46.5066 100.283 45.4551 102.942 45.4551ZM102.942 49.9506C102.216 49.9506 101.498 50.0934 100.829 50.3709C100.159 50.6484 99.5499 51.0551 99.0372 51.5678C98.5245 52.0805 98.1178 52.6892 97.8403 53.3591C97.5628 54.029 97.42 54.747 97.42 55.4721C97.42 56.1972 97.5628 56.9152 97.8403 57.5851C98.1178 58.255 98.5245 58.8636 99.0372 59.3764C99.5499 59.8891 100.159 60.2958 100.829 60.5733C101.498 60.8508 102.216 60.9936 102.942 60.9936C104.407 60.9936 105.812 60.4116 106.847 59.3757C107.883 58.3398 108.465 56.9348 108.465 55.4698C108.465 54.0048 107.883 52.5999 106.847 51.5639C105.812 50.528 104.407 49.9461 102.942 49.9461M71.572 83.7501C71.572 84.3468 71.335 84.9191 70.913 85.3411C70.4911 85.763 69.9188 86.0001 69.322 86.0001C68.7253 86.0001 68.153 85.763 67.731 85.3411C67.3091 84.9191 67.072 84.3468 67.072 83.7501V72.5631C67.0722 71.4609 67.4768 70.3971 68.2092 69.5734C68.9417 68.7497 69.9509 68.2235 71.0455 68.0946L71.572 68.0631H83.9785C83.3238 69.1929 82.9244 70.4524 82.8085 71.7531L82.7725 72.5631H71.5675L71.572 83.7501ZM136.701 86.0001C137.297 86.0001 137.87 85.763 138.292 85.3411C138.713 84.9191 138.951 84.3468 138.951 83.7501V72.5631L138.919 72.0411C138.791 70.9456 138.265 69.9353 137.442 69.202C136.618 68.4686 135.553 68.0634 134.451 68.0631H121.923C122.58 69.2016 123.003 70.5066 123.102 71.8926L123.124 72.5676H134.451V83.7501C134.451 84.3468 134.688 84.9191 135.11 85.3411C135.531 85.763 136.104 86.0001 136.701 86.0001ZM114.129 68.0631C115.231 68.0634 116.296 68.4686 117.12 69.202C117.943 69.9353 118.469 70.9456 118.597 72.0411L118.624 72.5631V83.7501C118.624 84.3468 118.387 84.9191 117.965 85.3411C117.543 85.763 116.971 86.0001 116.374 86.0001C115.777 86.0001 115.205 85.763 114.783 85.3411C114.361 84.9191 114.124 84.3468 114.124 83.7501V72.5631H91.777V83.7501C91.777 84.3468 91.54 84.9191 91.118 85.3411C90.6961 85.763 90.1238 86.0001 89.527 86.0001C88.9303 86.0001 88.358 85.763 87.936 85.3411C87.5141 84.9191 87.277 84.3468 87.277 83.7501V72.5631C87.2772 71.4609 87.6818 70.3971 88.4142 69.5734C89.1467 68.7497 90.1559 68.2235 91.2505 68.0946L91.777 68.0631H114.138M134.001 56.8896C134.001 54.6059 133.093 52.4157 131.478 50.8009C129.864 49.186 127.673 48.2788 125.39 48.2788C123.106 48.2788 120.916 49.186 119.301 50.8009C117.686 52.4157 116.779 54.6059 116.779 56.8896C116.779 59.1733 117.686 61.3635 119.301 62.9783C120.916 64.5931 123.106 65.5003 125.39 65.5003C127.673 65.5003 129.864 64.5931 131.478 62.9783C133.093 61.3635 134.001 59.1733 134.001 56.8896ZM121.279 56.8896C121.279 56.3497 121.385 55.8152 121.592 55.3165C121.799 54.8177 122.101 54.3646 122.483 53.9828C122.865 53.6011 123.318 53.2983 123.817 53.0917C124.315 52.8852 124.85 52.7788 125.39 52.7788C125.93 52.7788 126.464 52.8852 126.963 53.0917C127.462 53.2983 127.915 53.6011 128.297 53.9828C128.678 54.3646 128.981 54.8177 129.188 55.3165C129.394 55.8152 129.501 56.3497 129.501 56.8896C129.501 57.9798 129.067 59.0254 128.297 59.7963C127.526 60.5672 126.48 61.0003 125.39 61.0003C124.3 61.0003 123.254 60.5672 122.483 59.7963C121.712 59.0254 121.279 57.9798 121.279 56.8896ZM80.572 48.2766C82.8557 48.2766 85.0459 49.1838 86.6607 50.7986C88.2756 52.4134 89.1828 54.6036 89.1828 56.8873C89.1828 59.171 88.2756 61.3612 86.6607 62.976C85.0459 64.5909 82.8557 65.4981 80.572 65.4981C78.2883 65.4981 76.0981 64.5909 74.4833 62.976C72.8685 61.3612 71.9613 59.171 71.9613 56.8873C71.9613 54.6036 72.8685 52.4134 74.4833 50.7986C76.0981 49.1838 78.2883 48.2766 80.572 48.2766ZM80.572 52.7766C79.4818 52.7766 78.4362 53.2097 77.6653 53.9806C76.8944 54.7515 76.4613 55.7971 76.4613 56.8873C76.4613 57.9776 76.8944 59.0232 77.6653 59.7941C78.4362 60.565 79.4818 60.9981 80.572 60.9981C81.6623 60.9981 82.7078 60.565 83.4788 59.7941C84.2497 59.0232 84.6828 57.9776 84.6828 56.8873C84.6828 55.7971 84.2497 54.7515 83.4788 53.9806C82.7078 53.2097 81.6623 52.7766 80.572 52.7766Z"/>
</mask>
<path d="M102.942 45.4551C105.599 45.4551 108.148 46.5109 110.028 48.3903C111.907 50.2697 112.963 52.8187 112.963 55.4766C112.963 58.1344 111.907 60.6835 110.028 62.5628C108.148 64.4422 105.599 65.4981 102.942 65.4981C100.283 65.4981 97.7335 64.442 95.8537 62.5622C93.9738 60.6824 92.9178 58.1328 92.9178 55.4743C92.9178 52.8159 93.9738 50.2663 95.8537 48.3865C97.7335 46.5066 100.283 45.4551 102.942 45.4551ZM102.942 49.9506C102.216 49.9506 101.498 50.0934 100.829 50.3709C100.159 50.6484 99.5499 51.0551 99.0372 51.5678C98.5245 52.0805 98.1178 52.6892 97.8403 53.3591C97.5628 54.029 97.42 54.747 97.42 55.4721C97.42 56.1972 97.5628 56.9152 97.8403 57.5851C98.1178 58.255 98.5245 58.8636 99.0372 59.3764C99.5499 59.8891 100.159 60.2958 100.829 60.5733C101.498 60.8508 102.216 60.9936 102.942 60.9936C104.407 60.9936 105.812 60.4116 106.847 59.3757C107.883 58.3398 108.465 56.9348 108.465 55.4698C108.465 54.0048 107.883 52.5999 106.847 51.5639C105.812 50.528 104.407 49.9461 102.942 49.9461M71.572 83.7501C71.572 84.3468 71.335 84.9191 70.913 85.3411C70.4911 85.763 69.9188 86.0001 69.322 86.0001C68.7253 86.0001 68.153 85.763 67.731 85.3411C67.3091 84.9191 67.072 84.3468 67.072 83.7501V72.5631C67.0722 71.4609 67.4768 70.3971 68.2092 69.5734C68.9417 68.7497 69.9509 68.2235 71.0455 68.0946L71.572 68.0631H83.9785C83.3238 69.1929 82.9244 70.4524 82.8085 71.7531L82.7725 72.5631H71.5675L71.572 83.7501ZM136.701 86.0001C137.297 86.0001 137.87 85.763 138.292 85.3411C138.713 84.9191 138.951 84.3468 138.951 83.7501V72.5631L138.919 72.0411C138.791 70.9456 138.265 69.9353 137.442 69.202C136.618 68.4686 135.553 68.0634 134.451 68.0631H121.923C122.58 69.2016 123.003 70.5066 123.102 71.8926L123.124 72.5676H134.451V83.7501C134.451 84.3468 134.688 84.9191 135.11 85.3411C135.531 85.763 136.104 86.0001 136.701 86.0001ZM114.129 68.0631C115.231 68.0634 116.296 68.4686 117.12 69.202C117.943 69.9353 118.469 70.9456 118.597 72.0411L118.624 72.5631V83.7501C118.624 84.3468 118.387 84.9191 117.965 85.3411C117.543 85.763 116.971 86.0001 116.374 86.0001C115.777 86.0001 115.205 85.763 114.783 85.3411C114.361 84.9191 114.124 84.3468 114.124 83.7501V72.5631H91.777V83.7501C91.777 84.3468 91.54 84.9191 91.118 85.3411C90.6961 85.763 90.1238 86.0001 89.527 86.0001C88.9303 86.0001 88.358 85.763 87.936 85.3411C87.5141 84.9191 87.277 84.3468 87.277 83.7501V72.5631C87.2772 71.4609 87.6818 70.3971 88.4142 69.5734C89.1467 68.7497 90.1559 68.2235 91.2505 68.0946L91.777 68.0631H114.138M134.001 56.8896C134.001 54.6059 133.093 52.4157 131.478 50.8009C129.864 49.186 127.673 48.2788 125.39 48.2788C123.106 48.2788 120.916 49.186 119.301 50.8009C117.686 52.4157 116.779 54.6059 116.779 56.8896C116.779 59.1733 117.686 61.3635 119.301 62.9783C120.916 64.5931 123.106 65.5003 125.39 65.5003C127.673 65.5003 129.864 64.5931 131.478 62.9783C133.093 61.3635 134.001 59.1733 134.001 56.8896ZM121.279 56.8896C121.279 56.3497 121.385 55.8152 121.592 55.3165C121.799 54.8177 122.101 54.3646 122.483 53.9828C122.865 53.6011 123.318 53.2983 123.817 53.0917C124.315 52.8852 124.85 52.7788 125.39 52.7788C125.93 52.7788 126.464 52.8852 126.963 53.0917C127.462 53.2983 127.915 53.6011 128.297 53.9828C128.678 54.3646 128.981 54.8177 129.188 55.3165C129.394 55.8152 129.501 56.3497 129.501 56.8896C129.501 57.9798 129.067 59.0254 128.297 59.7963C127.526 60.5672 126.48 61.0003 125.39 61.0003C124.3 61.0003 123.254 60.5672 122.483 59.7963C121.712 59.0254 121.279 57.9798 121.279 56.8896ZM80.572 48.2766C82.8557 48.2766 85.0459 49.1838 86.6607 50.7986C88.2756 52.4134 89.1828 54.6036 89.1828 56.8873C89.1828 59.171 88.2756 61.3612 86.6607 62.976C85.0459 64.5909 82.8557 65.4981 80.572 65.4981C78.2883 65.4981 76.0981 64.5909 74.4833 62.976C72.8685 61.3612 71.9613 59.171 71.9613 56.8873C71.9613 54.6036 72.8685 52.4134 74.4833 50.7986C76.0981 49.1838 78.2883 48.2766 80.572 48.2766ZM80.572 52.7766C79.4818 52.7766 78.4362 53.2097 77.6653 53.9806C76.8944 54.7515 76.4613 55.7971 76.4613 56.8873C76.4613 57.9776 76.8944 59.0232 77.6653 59.7941C78.4362 60.565 79.4818 60.9981 80.572 60.9981C81.6623 60.9981 82.7078 60.565 83.4788 59.7941C84.2497 59.0232 84.6828 57.9776 84.6828 56.8873C84.6828 55.7971 84.2497 54.7515 83.4788 53.9806C82.7078 53.2097 81.6623 52.7766 80.572 52.7766Z" fill="#FD9074"/>
<path d="M102.942 45.4551V46.4551V45.4551ZM112.963 55.4766H111.963H112.963ZM102.942 60.9936V61.9936V60.9936ZM108.465 55.4698H109.465H108.465ZM71.572 83.7501H72.572V83.7497L71.572 83.7501ZM67.072 72.5631L66.072 72.5629V72.5631H67.072ZM71.0455 68.0946L70.9858 67.0964L70.9571 67.0981L70.9285 67.1014L71.0455 68.0946ZM71.572 68.0631V67.0631H71.5421L71.5123 67.0649L71.572 68.0631ZM83.9785 68.0631L84.8437 68.5645L85.7139 67.0631H83.9785V68.0631ZM82.8085 71.7531L81.8125 71.6643L81.8105 71.6865L81.8095 71.7087L82.8085 71.7531ZM82.7725 72.5631V73.5631H83.7291L83.7715 72.6075L82.7725 72.5631ZM71.5675 72.5631V71.5631H70.5671L70.5675 72.5635L71.5675 72.5631ZM138.951 72.5631H139.951V72.5329L139.949 72.5028L138.951 72.5631ZM138.919 72.0411L139.917 71.9808L139.916 71.9529L139.912 71.9251L138.919 72.0411ZM134.451 68.0631L134.451 67.0631H134.451V68.0631ZM121.923 68.0631V67.0631H120.191L121.056 68.5629L121.923 68.0631ZM123.102 71.8926L124.101 71.8593L124.1 71.8403L124.099 71.8213L123.102 71.8926ZM123.124 72.5676L122.125 72.6009L122.157 73.5676H123.124V72.5676ZM134.451 72.5676H135.451V71.5676H134.451V72.5676ZM118.597 72.0411L119.596 71.9894L119.594 71.9572L119.59 71.9251L118.597 72.0411ZM118.624 72.5631H119.624V72.5372L119.623 72.5114L118.624 72.5631ZM114.124 72.5631H115.124V71.5631H114.124V72.5631ZM91.777 72.5631V71.5631H90.777V72.5631H91.777ZM87.277 72.5631L86.277 72.5629V72.5631H87.277ZM91.2505 68.0946L91.1908 67.0964L91.1621 67.0981L91.1335 67.1014L91.2505 68.0946ZM91.777 68.0631V67.0631H91.7471L91.7173 67.0649L91.777 68.0631ZM134.001 56.8896H135.001H134.001ZM125.39 48.2788V47.2788V48.2788ZM116.779 56.8896H115.779H116.779ZM121.279 56.8896H122.279H121.279ZM129.501 56.8896H130.501H129.501ZM80.572 48.2766V47.2766V48.2766ZM71.9613 56.8873H70.9613H71.9613ZM80.572 52.7766V53.7766V52.7766ZM80.572 60.9981V61.9981V60.9981ZM102.942 46.4551C105.334 46.4551 107.629 47.4056 109.321 49.0974L110.735 47.6832C108.668 45.6163 105.865 44.4551 102.942 44.4551V46.4551ZM109.321 49.0974C111.013 50.7893 111.963 53.0839 111.963 55.4766H113.963C113.963 52.5535 112.802 49.7501 110.735 47.6832L109.321 49.0974ZM111.963 55.4766C111.963 57.8692 111.013 60.1639 109.321 61.8557L110.735 63.27C112.802 61.203 113.963 58.3997 113.963 55.4766H111.963ZM109.321 61.8557C107.629 63.5476 105.334 64.4981 102.942 64.4981V66.4981C105.865 66.4981 108.668 65.3369 110.735 63.27L109.321 61.8557ZM102.942 64.4981C100.548 64.4981 98.253 63.5474 96.5608 61.8551L95.1466 63.2693C97.2139 65.3367 100.018 66.4981 102.942 66.4981V64.4981ZM96.5608 61.8551C94.8685 60.1628 93.9178 57.8676 93.9178 55.4743H91.9178C91.9178 58.398 93.0792 61.2019 95.1466 63.2693L96.5608 61.8551ZM93.9178 55.4743C93.9178 53.0811 94.8685 50.7859 96.5608 49.0936L95.1466 47.6794C93.0792 49.7467 91.9178 52.5506 91.9178 55.4743H93.9178ZM96.5608 49.0936C98.2522 47.4021 100.547 46.4551 102.942 46.4551V44.4551C100.019 44.4551 97.2147 45.6112 95.1466 47.6794L96.5608 49.0936ZM102.942 48.9506C102.085 48.9506 101.237 49.1193 100.446 49.447L101.211 51.2948C101.76 51.0675 102.348 50.9506 102.942 50.9506V48.9506ZM100.446 49.447C99.6546 49.7747 98.9357 50.2551 98.3301 50.8607L99.7443 52.2749C100.164 51.855 100.663 51.522 101.211 51.2948L100.446 49.447ZM98.3301 50.8607C97.7245 51.4663 97.2442 52.1852 96.9164 52.9764L98.7642 53.7418C98.9914 53.1932 99.3245 52.6948 99.7443 52.2749L98.3301 50.8607ZM96.9164 52.9764C96.5887 53.7676 96.42 54.6157 96.42 55.4721H98.42C98.42 54.8783 98.537 54.2903 98.7642 53.7418L96.9164 52.9764ZM96.42 55.4721C96.42 56.3285 96.5887 57.1765 96.9164 57.9677L98.7642 57.2024C98.537 56.6538 98.42 56.0659 98.42 55.4721H96.42ZM96.9164 57.9677C97.2442 58.759 97.7245 59.4779 98.3301 60.0835L99.7443 58.6693C99.3245 58.2494 98.9914 57.751 98.7642 57.2024L96.9164 57.9677ZM98.3301 60.0835C98.9357 60.6891 99.6546 61.1694 100.446 61.4972L101.211 59.6494C100.663 59.4222 100.164 59.0891 99.7443 58.6693L98.3301 60.0835ZM100.446 61.4972C101.237 61.8249 102.085 61.9936 102.942 61.9936V59.9936C102.348 59.9936 101.76 59.8766 101.211 59.6494L100.446 61.4972ZM102.942 61.9936C104.672 61.9936 106.331 61.3063 107.555 60.0828L106.14 58.6686C105.292 59.517 104.141 59.9936 102.942 59.9936V61.9936ZM107.555 60.0828C108.778 58.8594 109.465 57.2 109.465 55.4698H107.465C107.465 56.6696 106.989 57.8202 106.14 58.6686L107.555 60.0828ZM109.465 55.4698C109.465 53.7396 108.778 52.0803 107.555 50.8568L106.14 52.2711C106.989 53.1194 107.465 54.2701 107.465 55.4698H109.465ZM107.555 50.8568C106.331 49.6334 104.672 48.9461 102.942 48.9461V50.9461C104.141 50.9461 105.292 51.4227 106.14 52.2711L107.555 50.8568ZM70.572 83.7501C70.572 84.0816 70.4403 84.3995 70.2059 84.634L71.6201 86.0482C72.2296 85.4387 72.572 84.612 72.572 83.7501H70.572ZM70.2059 84.634C69.9715 84.8684 69.6535 85.0001 69.322 85.0001V87.0001C70.184 87.0001 71.0106 86.6577 71.6201 86.0482L70.2059 84.634ZM69.322 85.0001C68.9905 85.0001 68.6726 84.8684 68.4381 84.634L67.0239 86.0482C67.6334 86.6577 68.4601 87.0001 69.322 87.0001V85.0001ZM68.4381 84.634C68.2037 84.3995 68.072 84.0816 68.072 83.7501H66.072C66.072 84.612 66.4144 85.4387 67.0239 86.0482L68.4381 84.634ZM68.072 83.7501V72.5631H66.072V83.7501H68.072ZM68.072 72.5632C68.0721 71.7059 68.3869 70.8785 68.9565 70.2379L67.462 68.9089C66.5668 69.9156 66.0722 71.2158 66.072 72.5629L68.072 72.5632ZM68.9565 70.2379C69.5262 69.5973 70.3111 69.188 71.1625 69.0877L70.9285 67.1014C69.5906 67.2591 68.3571 67.9022 67.462 68.9089L68.9565 70.2379ZM71.1052 69.0928L71.6317 69.0613L71.5123 67.0649L70.9858 67.0964L71.1052 69.0928ZM71.572 69.0631H83.9785V67.0631H71.572V69.0631ZM83.1133 67.5617C82.3853 68.8178 81.9413 70.2182 81.8125 71.6643L83.8046 71.8418C83.9075 70.6866 84.2622 69.5679 84.8437 68.5645L83.1133 67.5617ZM81.8095 71.7087L81.7735 72.5187L83.7715 72.6075L83.8075 71.7975L81.8095 71.7087ZM82.7725 71.5631H71.5675V73.5631H82.7725V71.5631ZM70.5675 72.5635L70.572 83.7505L72.572 83.7497L72.5675 72.5627L70.5675 72.5635ZM136.701 87.0001C137.562 87.0001 138.389 86.6577 138.999 86.0482L137.584 84.634C137.35 84.8684 137.032 85.0001 136.701 85.0001V87.0001ZM138.999 86.0482C139.608 85.4387 139.951 84.612 139.951 83.7501H137.951C137.951 84.0816 137.819 84.3995 137.584 84.634L138.999 86.0482ZM139.951 83.7501V72.5631H137.951V83.7501H139.951ZM139.949 72.5028L139.917 71.9808L137.921 72.1013L137.952 72.6233L139.949 72.5028ZM139.912 71.9251C139.756 70.5862 139.113 69.3514 138.106 68.4551L136.777 69.9489C137.417 70.5193 137.826 71.3051 137.926 72.1571L139.912 71.9251ZM138.106 68.4551C137.1 67.5588 135.799 67.0634 134.451 67.0631L134.45 69.0631C135.308 69.0633 136.136 69.3785 136.777 69.9489L138.106 68.4551ZM134.451 67.0631H121.923V69.0631H134.451V67.0631ZM121.056 68.5629C121.641 69.5764 122.016 70.7356 122.104 71.9638L124.099 71.8213C123.989 70.2775 123.518 68.8267 122.789 67.5633L121.056 68.5629ZM122.102 71.9259L122.125 72.6009L124.123 72.5343L124.101 71.8593L122.102 71.9259ZM123.124 73.5676H134.451V71.5676H123.124V73.5676ZM133.451 72.5676V83.7501H135.451V72.5676H133.451ZM133.451 83.7501C133.451 84.612 133.793 85.4387 134.402 86.0482L135.817 84.634C135.582 84.3995 135.451 84.0816 135.451 83.7501H133.451ZM134.402 86.0482C135.012 86.6577 135.839 87.0001 136.701 87.0001V85.0001C136.369 85.0001 136.051 84.8684 135.817 84.634L134.402 86.0482ZM114.128 69.0631C114.986 69.0633 115.814 69.3785 116.455 69.9489L117.784 68.4551C116.778 67.5588 115.477 67.0634 114.129 67.0631L114.128 69.0631ZM116.455 69.9489C117.095 70.5193 117.504 71.3051 117.604 72.1571L119.59 71.9251C119.434 70.5862 118.791 69.3514 117.784 68.4551L116.455 69.9489ZM117.598 72.0927L117.625 72.6147L119.623 72.5114L119.596 71.9894L117.598 72.0927ZM117.624 72.5631V83.7501H119.624V72.5631H117.624ZM117.624 83.7501C117.624 84.0816 117.492 84.3995 117.258 84.634L118.672 86.0482C119.282 85.4387 119.624 84.612 119.624 83.7501H117.624ZM117.258 84.634C117.023 84.8684 116.706 85.0001 116.374 85.0001V87.0001C117.236 87.0001 118.063 86.6577 118.672 86.0482L117.258 84.634ZM116.374 85.0001C116.042 85.0001 115.725 84.8684 115.49 84.634L114.076 86.0482C114.685 86.6577 115.512 87.0001 116.374 87.0001V85.0001ZM115.49 84.634C115.256 84.3995 115.124 84.0816 115.124 83.7501H113.124C113.124 84.612 113.466 85.4387 114.076 86.0482L115.49 84.634ZM115.124 83.7501V72.5631H113.124V83.7501H115.124ZM114.124 71.5631H91.777V73.5631H114.124V71.5631ZM90.777 72.5631V83.7501H92.777V72.5631H90.777ZM90.777 83.7501C90.777 84.0816 90.6453 84.3995 90.4109 84.634L91.8251 86.0482C92.4346 85.4387 92.777 84.612 92.777 83.7501H90.777ZM90.4109 84.634C90.1765 84.8684 89.8585 85.0001 89.527 85.0001V87.0001C90.389 87.0001 91.2156 86.6577 91.8251 86.0482L90.4109 84.634ZM89.527 85.0001C89.1955 85.0001 88.8776 84.8684 88.6431 84.634L87.2289 86.0482C87.8384 86.6577 88.6651 87.0001 89.527 87.0001V85.0001ZM88.6431 84.634C88.4087 84.3995 88.277 84.0816 88.277 83.7501H86.277C86.277 84.612 86.6194 85.4387 87.2289 86.0482L88.6431 84.634ZM88.277 83.7501V72.5631H86.277V83.7501H88.277ZM88.277 72.5632C88.2771 71.7059 88.5919 70.8785 89.1615 70.2379L87.667 68.9089C86.7718 69.9156 86.2772 71.2158 86.277 72.5629L88.277 72.5632ZM89.1615 70.2379C89.7312 69.5973 90.5161 69.188 91.3675 69.0877L91.1335 67.1014C89.7956 67.2591 88.5621 67.9022 87.667 68.9089L89.1615 70.2379ZM91.3102 69.0928L91.8367 69.0613L91.7173 67.0649L91.1908 67.0964L91.3102 69.0928ZM91.777 69.0631H114.138V67.0631H91.777V69.0631ZM135.001 56.8896C135.001 54.3406 133.988 51.8961 132.186 50.0938L130.771 51.508C132.199 52.9353 133.001 54.8711 133.001 56.8896H135.001ZM132.186 50.0938C130.383 48.2914 127.939 47.2788 125.39 47.2788V49.2788C127.408 49.2788 129.344 50.0807 130.771 51.508L132.186 50.0938ZM125.39 47.2788C122.841 47.2788 120.396 48.2914 118.594 50.0938L120.008 51.508C121.435 50.0807 123.371 49.2788 125.39 49.2788V47.2788ZM118.594 50.0938C116.792 51.8961 115.779 54.3406 115.779 56.8896H117.779C117.779 54.8711 118.581 52.9353 120.008 51.508L118.594 50.0938ZM115.779 56.8896C115.779 59.4385 116.792 61.883 118.594 63.6854L120.008 62.2712C118.581 60.8439 117.779 58.9081 117.779 56.8896H115.779ZM118.594 63.6854C120.396 65.4878 122.841 66.5003 125.39 66.5003V64.5003C123.371 64.5003 121.435 63.6985 120.008 62.2712L118.594 63.6854ZM125.39 66.5003C127.939 66.5003 130.383 65.4878 132.186 63.6854L130.771 62.2712C129.344 63.6985 127.408 64.5003 125.39 64.5003V66.5003ZM132.186 63.6854C133.988 61.883 135.001 59.4385 135.001 56.8896H133.001C133.001 58.9081 132.199 60.8439 130.771 62.2712L132.186 63.6854ZM122.279 56.8896C122.279 56.4811 122.359 56.0766 122.516 55.6991L120.668 54.9338C120.411 55.5538 120.279 56.2184 120.279 56.8896H122.279ZM122.516 55.6991C122.672 55.3217 122.901 54.9788 123.19 54.6899L121.776 53.2757C121.301 53.7503 120.925 54.3137 120.668 54.9338L122.516 55.6991ZM123.19 54.6899C123.479 54.4011 123.822 54.1719 124.199 54.0156L123.434 52.1679C122.814 52.4247 122.251 52.8012 121.776 53.2757L123.19 54.6899ZM124.199 54.0156C124.577 53.8593 124.981 53.7788 125.39 53.7788V51.7788C124.719 51.7788 124.054 51.911 123.434 52.1679L124.199 54.0156ZM125.39 53.7788C125.798 53.7788 126.203 53.8593 126.58 54.0156L127.346 52.1679C126.726 51.911 126.061 51.7788 125.39 51.7788V53.7788ZM126.58 54.0156C126.958 54.172 127.301 54.4011 127.589 54.6899L129.004 53.2757C128.529 52.8012 127.966 52.4247 127.346 52.1679L126.58 54.0156ZM127.589 54.6899C127.878 54.9788 128.107 55.3217 128.264 55.6991L130.111 54.9338C129.855 54.3137 129.478 53.7503 129.004 53.2757L127.589 54.6899ZM128.264 55.6991C128.42 56.0766 128.501 56.4811 128.501 56.8896H130.501C130.501 56.2184 130.368 55.5538 130.111 54.9338L128.264 55.6991ZM128.501 56.8896C128.501 57.7146 128.173 58.5058 127.589 59.0892L129.004 60.5034C129.962 59.545 130.501 58.245 130.501 56.8896H128.501ZM127.589 59.0892C127.006 59.6726 126.215 60.0003 125.39 60.0003V62.0003C126.745 62.0003 128.045 61.4619 129.004 60.5034L127.589 59.0892ZM125.39 60.0003C124.565 60.0003 123.774 59.6726 123.19 59.0892L121.776 60.5034C122.734 61.4619 124.034 62.0003 125.39 62.0003V60.0003ZM123.19 59.0892C122.607 58.5058 122.279 57.7146 122.279 56.8896H120.279C120.279 58.245 120.817 59.545 121.776 60.5034L123.19 59.0892ZM80.572 49.2766C82.5905 49.2766 84.5263 50.0784 85.9536 51.5057L87.3678 50.0915C85.5655 48.2891 83.1209 47.2766 80.572 47.2766V49.2766ZM85.9536 51.5057C87.3809 52.933 88.1828 54.8688 88.1828 56.8873H90.1828C90.1828 54.3384 89.1702 51.8939 87.3678 50.0915L85.9536 51.5057ZM88.1828 56.8873C88.1828 58.9058 87.3809 60.8416 85.9536 62.2689L87.3678 63.6832C89.1702 61.8808 90.1828 59.4363 90.1828 56.8873H88.1828ZM85.9536 62.2689C84.5263 63.6962 82.5905 64.4981 80.572 64.4981V66.4981C83.1209 66.4981 85.5655 65.4855 87.3678 63.6832L85.9536 62.2689ZM80.572 64.4981C78.5535 64.4981 76.6177 63.6962 75.1904 62.2689L73.7762 63.6832C75.5786 65.4855 78.0231 66.4981 80.572 66.4981V64.4981ZM75.1904 62.2689C73.7631 60.8416 72.9613 58.9058 72.9613 56.8873H70.9613C70.9613 59.4363 71.9738 61.8808 73.7762 63.6832L75.1904 62.2689ZM72.9613 56.8873C72.9613 54.8688 73.7631 52.933 75.1904 51.5057L73.7762 50.0915C71.9738 51.8939 70.9613 54.3384 70.9613 56.8873H72.9613ZM75.1904 51.5057C76.6177 50.0784 78.5535 49.2766 80.572 49.2766V47.2766C78.0231 47.2766 75.5786 48.2891 73.7762 50.0915L75.1904 51.5057ZM80.572 51.7766C79.2166 51.7766 77.9166 52.315 76.9582 53.2735L78.3724 54.6877C78.9558 54.1043 79.747 53.7766 80.572 53.7766V51.7766ZM76.9582 53.2735C75.9997 54.2319 75.4613 55.5319 75.4613 56.8873H77.4613C77.4613 56.0623 77.789 55.2711 78.3724 54.6877L76.9582 53.2735ZM75.4613 56.8873C75.4613 58.2428 75.9997 59.5427 76.9582 60.5012L78.3724 59.087C77.789 58.5036 77.4613 57.7123 77.4613 56.8873H75.4613ZM76.9582 60.5012C77.9166 61.4596 79.2166 61.9981 80.572 61.9981V59.9981C79.747 59.9981 78.9558 59.6703 78.3724 59.087L76.9582 60.5012ZM80.572 61.9981C81.9275 61.9981 83.2274 61.4596 84.1859 60.5012L82.7717 59.087C82.1883 59.6703 81.397 59.9981 80.572 59.9981V61.9981ZM84.1859 60.5012C85.1443 59.5427 85.6828 58.2428 85.6828 56.8873H83.6828C83.6828 57.7123 83.355 58.5036 82.7717 59.087L84.1859 60.5012ZM85.6828 56.8873C85.6828 55.5319 85.1443 54.2319 84.1859 53.2735L82.7717 54.6877C83.355 55.2711 83.6828 56.0623 83.6828 56.8873H85.6828ZM84.1859 53.2735C83.2274 52.315 81.9275 51.7766 80.572 51.7766V53.7766C81.397 53.7766 82.1883 54.1043 82.7717 54.6877L84.1859 53.2735Z" fill="#FD9074" mask="url(#path-5-inside-1_726_200476)"/>
<path d="M68.7197 92.2197C68.8603 92.079 69.0511 92 69.25 92H136.75C136.949 92 137.14 92.079 137.28 92.2197C137.421 92.3603 137.5 92.5511 137.5 92.75V97.25C137.5 99.8359 136.473 102.316 134.644 104.144C132.816 105.973 130.336 107 127.75 107H78.25C75.6641 107 73.1842 105.973 71.3557 104.144C69.5272 102.316 68.5 99.8359 68.5 97.25V92.75C68.5 92.5511 68.579 92.3603 68.7197 92.2197Z" fill="#FEE3DC" stroke="#FD9074" stroke-width="3"/>
</svg>
