<svg width="206" height="206" viewBox="0 0 206 160" fill="none" xmlns="http://www.w3.org/2000/svg">
<g opacity="0.3" filter="url(#filter0_d_1022_56216)">
<circle cx="103" cy="82.5" r="75.75" fill="#FDAD98" fill-opacity="0.2" shape-rendering="crispEdges"/>
</g>
<circle cx="103" cy="82.5" r="82.125" stroke="#FD9074" stroke-width="0.75"/>
<g filter="url(#filter1_d_1022_56216)">
<path opacity="0.3" d="M98.3133 46.6867C100.901 44.4742 105.138 44.4742 107.763 46.6867L113.688 51.7867C114.813 52.7617 116.913 53.5493 118.413 53.5493H124.788C128.763 53.5493 132.026 56.8118 132.026 60.7868V67.1616C132.026 68.6241 132.813 70.7616 133.788 71.8866L138.888 77.8117C141.101 80.3992 141.101 84.6367 138.888 87.2617L133.788 93.1866C132.813 94.3116 132.026 96.4116 132.026 97.9116V104.287C132.026 108.262 128.763 111.524 124.788 111.524H118.413C116.951 111.524 114.813 112.312 113.688 113.287L107.763 118.387C105.176 120.599 100.938 120.599 98.3133 118.387L92.3883 113.287C91.2633 112.312 89.1633 111.524 87.6633 111.524H81.1757C77.2007 111.524 73.9383 108.262 73.9383 104.287V97.8741C73.9383 96.4116 73.1508 94.3116 72.2133 93.1866L67.1508 87.2242C64.9758 84.6367 64.9758 80.4367 67.1508 77.8492L72.2133 71.8866C73.1508 70.7616 73.9383 68.6616 73.9383 67.1991V60.7868C73.9383 56.8118 77.2007 53.5493 81.1757 53.5493H87.6633C89.1258 53.5493 91.2633 52.7617 92.3883 51.7867L98.3133 46.6867Z" fill="#FDAD98"/>
<path d="M120.176 79.0118C119.463 77.9993 118.263 77.4368 116.838 77.4368H109.526C109.038 77.4368 108.588 77.2492 108.288 76.8742C107.988 76.4992 107.838 76.0118 107.913 75.4868L108.813 69.6368C109.188 67.9118 108.026 65.9242 106.301 65.3617C104.688 64.7617 102.776 65.5867 102.026 66.7117L94.7507 77.5117V76.1617C94.7507 73.5367 93.6258 72.4493 90.8508 72.4493H89.0132C86.2382 72.4493 85.1133 73.5367 85.1133 76.1617V94.0868C85.1133 96.7118 86.2382 97.7993 89.0132 97.7993H90.8508C93.4758 97.7993 94.6008 96.7867 94.7133 94.3867L100.226 98.6242C100.976 99.3742 102.663 99.7867 103.863 99.7867H110.801C113.201 99.7867 115.601 97.9867 116.126 95.7742L120.513 82.4242C121.001 81.2242 120.888 79.9868 120.176 79.0118Z" fill="#FD9074"/>
</g>
</svg>
