<svg width="206" height="206" viewBox="0 0 206 160" fill="none" xmlns="http://www.w3.org/2000/svg">
<circle opacity="0.3" cx="103" cy="82.5" r="75.75" fill="#FDAD98" fill-opacity="0.2"/>
<circle cx="103" cy="82.5" r="82.125" stroke="#FD9074" stroke-width="0.75"/>
<g filter="url(#filter0_d_1022_56222)">
<path d="M139.712 115.35L137.013 112.65C138.4 110.55 139.225 108 139.225 105.3C139.225 97.8749 133.225 91.875 125.8 91.875C118.375 91.875 112.375 97.8749 112.375 105.3C112.375 112.725 118.375 118.725 125.8 118.725C128.538 118.725 131.05 117.9 133.15 116.513L135.85 119.213C136.375 119.738 137.088 120 137.763 120C138.475 120 139.15 119.738 139.675 119.213C140.762 118.125 140.762 116.4 139.712 115.35Z" fill="#FD9074"/>
<g opacity="0.3">
<path d="M65.6102 92.3633C65.6102 92.4758 65.5352 92.6258 65.5352 92.7383C68.9852 99.6383 74.6102 105.301 81.5102 108.713C81.6227 108.713 81.7727 108.638 81.8852 108.638C80.6102 104.288 79.6352 99.8257 78.9227 95.3632C74.4227 94.6132 69.9602 93.6383 65.6102 92.3633Z" fill="#FDAD98"/>
<path d="M129.509 61.6129C125.984 54.2254 120.022 48.2629 112.672 44.7754C114.022 49.2379 115.147 53.8129 115.897 58.3879C120.472 59.1379 125.047 60.2254 129.509 61.6129Z" fill="#FDAD98"/>
<path d="M65.2344 61.6137C69.7344 60.2637 74.3094 59.1387 78.8844 58.3887C79.6344 53.9262 80.5719 49.5012 81.8469 45.1512C81.7344 45.1512 81.5844 45.0762 81.4719 45.0762C74.4219 48.5637 68.6844 54.4512 65.2344 61.6137Z" fill="#FDAD98"/>
<path d="M109.822 57.6004C108.922 52.7254 107.797 47.8504 106.184 43.1254C106.109 42.8629 106.109 42.638 106.072 42.338C103.297 41.663 100.372 41.2129 97.3719 41.2129C94.3344 41.2129 91.4469 41.6255 88.6344 42.338C88.5969 42.6005 88.6344 42.8254 88.5594 43.1254C86.9844 47.8504 85.8219 52.7254 84.9219 57.6004C93.2094 56.7004 101.534 56.7004 109.822 57.6004Z" fill="#FDAD98"/>
<path d="M78.0984 64.4258C73.1859 65.3258 68.3484 66.4508 63.6234 68.0633C63.3609 68.1383 63.1359 68.1383 62.8359 68.1758C62.1609 70.9508 61.7109 73.8758 61.7109 76.8758C61.7109 79.9133 62.1234 82.8008 62.8359 85.6133C63.0984 85.6508 63.3234 85.6133 63.6234 85.6883C68.3484 87.2633 73.1859 88.4258 78.0984 89.3258C77.1984 81.0383 77.1984 72.7133 78.0984 64.4258Z" fill="#FDAD98"/>
<path d="M131.872 68.1758C131.609 68.1758 131.384 68.1383 131.084 68.0633C126.359 66.4883 121.484 65.3258 116.609 64.4258C117.547 72.7133 117.547 81.0383 116.609 89.2883C121.484 88.3883 126.359 87.2633 131.084 85.6508C131.347 85.5758 131.572 85.6133 131.872 85.5758C132.547 82.7633 132.997 79.8758 132.997 76.8383C132.997 73.8758 132.584 70.9883 131.872 68.1758Z" fill="#FDAD98"/>
<path d="M84.9219 96.1504C85.8219 101.063 86.9469 105.9 88.5594 110.625C88.6344 110.888 88.5969 111.113 88.6344 111.413C91.4469 112.088 94.3344 112.538 97.3719 112.538C100.372 112.538 103.297 112.125 106.072 111.413C106.109 111.15 106.109 110.925 106.184 110.625C107.759 105.9 108.922 101.063 109.822 96.1504C105.697 96.6004 101.534 96.9379 97.3719 96.9379C93.2094 96.9004 89.0469 96.6004 84.9219 96.1504Z" fill="#FDAD98"/>
<path d="M84.0625 63.5625C82.9375 72.4125 82.9375 81.3374 84.0625 90.2249C92.9125 91.3499 101.838 91.3499 110.725 90.2249C111.85 81.3749 111.85 72.45 110.725 63.5625C101.838 62.4375 92.9125 62.4375 84.0625 63.5625Z" fill="#FDAD98"/>
</g>
</g>
</svg>
