<svg width="206" height="206" viewBox="0 0 206 160" fill="none" xmlns="http://www.w3.org/2000/svg">
<circle opacity="0.3" cx="103" cy="82.5" r="75.75" fill="#FDAD98" fill-opacity="0.2"/>
<circle cx="103" cy="82.5" r="82.125" stroke="#FD9074" stroke-width="0.75"/>
<g filter="url(#filter0_d_1022_56228)">
<path opacity="0.4" d="M129.25 71.25C129.25 76.6875 127.638 81.6751 124.862 85.8376C120.812 91.8376 114.4 96.075 106.938 97.1625C105.663 97.3875 104.35 97.5 103 97.5C101.65 97.5 100.337 97.3875 99.0625 97.1625C91.6 96.075 85.1875 91.8376 81.1375 85.8376C78.3625 81.6751 76.75 76.6875 76.75 71.25C76.75 56.7375 88.4875 45 103 45C117.513 45 129.25 56.7375 129.25 71.25Z" fill="#FDAD98"/>
<path d="M137.687 106.763L131.499 108.225C130.112 108.562 129.024 109.613 128.724 111L127.412 116.513C126.699 119.513 122.874 120.413 120.887 118.05L102.999 97.5L85.1116 118.087C83.1241 120.45 79.2991 119.55 78.5866 116.55L77.2741 111.037C76.9366 109.65 75.8491 108.563 74.4991 108.263L68.3116 106.8C65.4616 106.125 64.4491 102.562 66.5116 100.5L81.1366 85.875C85.1866 91.875 91.5991 96.1126 99.0616 97.2001C100.337 97.4251 101.649 97.5376 102.999 97.5376C104.349 97.5376 105.662 97.4251 106.937 97.2001C114.399 96.1126 120.812 91.875 124.862 85.875L139.487 100.5C141.549 102.525 140.537 106.088 137.687 106.763Z" fill="#FD9074"/>
<path d="M105.174 59.925L107.387 64.35C107.687 64.95 108.474 65.55 109.187 65.6625L113.199 66.3375C115.749 66.75 116.349 68.625 114.512 70.4625L111.399 73.5749C110.874 74.0999 110.574 75.1125 110.762 75.8625L111.662 79.725C112.374 82.7625 110.762 83.9624 108.062 82.3499L104.312 80.1374C103.637 79.7249 102.512 79.7249 101.837 80.1374L98.0869 82.3499C95.3869 83.9249 93.7744 82.7625 94.4869 79.725L95.3869 75.8625C95.5369 75.15 95.2744 74.0999 94.7494 73.5749L91.6369 70.4625C89.7994 68.625 90.3994 66.7875 92.9494 66.3375L96.9619 65.6625C97.6369 65.55 98.4244 64.95 98.7244 64.35L100.937 59.925C102.024 57.525 103.974 57.525 105.174 59.925Z" fill="#FD9074"/>
</g>
</svg>
