<svg width="280" height="250" viewBox="580 160 280 250" fill="none" xmlns="http://www.w3.org/2000/svg">
  <rect x="580" y="160" width="280" height="250" rx="20" fill="#FEE3DC" />
  <g opacity="0.8">
    <path
      d="M703.68 213L749.623 247.068L702.984 288.368C702.448 288.244 701.978 287.95 701.632 287.555C701.237 287.101 701 286.513 701 285.865V215.563C701 214.803 701.326 214.127 701.853 213.656C702.304 213.25 702.904 213 703.563 213H703.68Z"
      fill="#FA5B32" fill-opacity="0.6" />
    <path
      d="M811.847 215.563V285.865C811.847 286.513 811.609 287.101 811.215 287.555C810.869 287.95 810.398 288.244 809.863 288.368L763.223 247.068L809.166 213H809.283C809.943 213 810.543 213.25 810.998 213.656C811.52 214.127 811.847 214.803 811.847 215.563Z"
      fill="#FA5B32" fill-opacity="0.6" />
    <path
      d="M703.68 213L749.623 247.068L740.754 254.923L701 225.443V215.563C701 214.803 701.326 214.127 701.853 213.656C702.304 213.25 702.904 213 703.563 213H703.68Z"
      fill="#FA5B32" fill-opacity="0.7" />
    <path
      d="M811.847 215.563V285.865C811.847 286.513 811.609 287.1 811.215 287.555C810.869 287.95 810.398 288.243 809.863 288.368L796.78 276.782V246.288C796.78 242.288 792.225 239.994 789.013 242.376L772.092 254.923L763.223 247.068L809.166 213H809.283C809.943 213 810.543 213.25 810.998 213.656C811.52 214.127 811.847 214.802 811.847 215.563Z"
      fill="#FA5B32" fill-opacity="0.7" />
    <path
      d="M811.216 287.554C810.746 288.092 810.054 288.433 809.284 288.433H703.564C702.795 288.433 702.102 288.092 701.633 287.554L756.424 239.035L811.216 287.554Z"
      fill="#F3BB8D" />
    <path
      d="M773.33 254.007L765.42 259.872C762.797 261.812 759.685 262.84 756.423 262.84C753.161 262.84 750.049 261.812 747.426 259.872L739.516 254.007L756.423 239.035L773.33 254.007Z"
      fill="#F3C9AE" />
    <path
      d="M810.993 213.657L759.478 251.856C757.663 253.202 755.182 253.202 753.367 251.856L701.852 213.657C702.305 213.249 702.905 213 703.562 213H809.282C809.939 213 810.539 213.249 810.993 213.657Z"
      fill="#FA5B32" fill-opacity="0.7" />
    <path
      d="M667.567 283.801L713.507 317.865L666.866 359.169C666.331 359.04 665.864 358.751 665.514 358.356C665.124 357.902 664.883 357.314 664.883 356.666V286.364C664.883 285.604 665.213 284.927 665.736 284.457C666.191 284.05 666.786 283.801 667.446 283.801H667.567Z"
      fill="#FA5B32" fill-opacity="0.6" />
    <path
      d="M775.733 286.364V356.666C775.733 357.314 775.492 357.901 775.102 358.356C774.752 358.75 774.285 359.04 773.75 359.169L727.109 317.865L773.049 283.801H773.17C773.825 283.801 774.425 284.05 774.88 284.457C775.403 284.928 775.733 285.604 775.733 286.364Z"
      fill="#FA5B32" fill-opacity="0.6" />
    <path
      d="M667.567 283.801L713.507 317.865L704.637 325.72L664.883 296.243V286.364C664.883 285.604 665.213 284.927 665.736 284.457C666.191 284.05 666.786 283.801 667.446 283.801H667.567Z"
      fill="#FA5B32" fill-opacity="0.7" />
    <path
      d="M775.733 286.364V356.666C775.733 357.314 775.491 357.901 775.101 358.356C774.751 358.75 774.284 359.04 773.749 359.169L760.667 347.583V317.088C760.667 313.088 756.111 310.795 752.896 313.177L735.979 325.72L727.109 317.865L773.049 283.801H773.17C773.825 283.801 774.425 284.05 774.88 284.457C775.403 284.928 775.733 285.604 775.733 286.364Z"
      fill="#FA5B32" fill-opacity="0.7" />
    <path
      d="M775.098 358.354C774.629 358.893 773.937 359.234 773.167 359.234H667.447C666.677 359.234 665.985 358.893 665.516 358.354L720.307 309.836L775.098 358.354Z"
      fill="#F3BB8D" />
    <path
      d="M737.213 324.808L729.303 330.673C726.68 332.613 723.568 333.641 720.306 333.641C717.044 333.641 713.932 332.613 711.309 330.673L703.398 324.808L720.305 309.836L737.213 324.808Z"
      fill="#F3C9AE" />
    <path
      d="M774.876 284.457L723.361 322.657C721.546 324.003 719.065 324.003 717.25 322.657L665.734 284.457C666.188 284.05 666.788 283.801 667.445 283.801H773.165C773.822 283.801 774.422 284.05 774.876 284.457Z"
      fill="#FA5B32" fill-opacity="0.7" />
    <path
      d="M726.396 346.825H714.221C712.554 346.825 711.203 345.474 711.203 343.807C711.203 342.14 712.554 340.789 714.221 340.789H726.396C728.063 340.789 729.414 342.14 729.414 343.807C729.414 345.474 728.062 346.825 726.396 346.825Z"
      fill="#FA5B32" fill-opacity="0.7" />
    <path
      d="M794.318 359.335V369.759C794.318 370.87 793.417 371.771 792.305 371.771H648.311C647.2 371.771 646.299 370.87 646.299 369.759V359.335C646.299 357.288 644.64 355.629 642.593 355.629H636.777C634.73 355.629 633.07 357.288 633.07 359.335V381.293C633.07 383.34 634.73 385 636.777 385H803.84C805.887 385 807.546 383.34 807.546 381.293V359.335C807.546 357.288 805.887 355.629 803.84 355.629H798.023C795.977 355.629 794.318 357.288 794.318 359.335Z"
      fill="#FA5B32" fill-opacity="0.7" />
    <path
      d="M686.217 214.482L667.338 233.362C666.319 234.38 664.67 234.38 663.651 233.362L644.767 214.482C643.127 212.842 644.291 210.032 646.615 210.032H651.387C652.498 210.032 653.399 209.132 653.399 208.02V196.611C653.399 195.171 654.566 194.004 656.006 194.004H674.979C676.422 194.004 677.586 195.173 677.586 196.611V208.02C677.586 209.132 678.486 210.032 679.598 210.032H684.374C686.698 210.032 687.857 212.842 686.217 214.482Z"
      fill="#FA5B32" fill-opacity="0.7" />
    <path
      d="M686.22 214.479L667.339 233.36C666.321 234.378 664.67 234.378 663.653 233.36L659.234 228.942L673.693 214.479C675.335 212.841 674.176 210.032 671.85 210.032H665.061V196.608C665.061 195.171 663.898 194 662.457 194H674.98C676.421 194 677.588 195.171 677.588 196.608V208.02C677.588 209.132 678.489 210.032 679.6 210.032H684.377C686.699 210.032 687.858 212.841 686.22 214.479Z"
      fill="#FA5B32" fill-opacity="0.7" />
  </g>
</svg>